<?xml version="1.0" encoding="utf-8"?>
<!-- Generator: Adobe Illustrator 16.0.0, SVG Export Plug-In . SVG Version: 6.00 Build 0)  -->
<!DOCTYPE svg PUBLIC "-//W3C//DTD SVG 1.1//EN" "http://www.w3.org/Graphics/SVG/1.1/DTD/svg11.dtd">
<svg version="1.1" id="Layer_1" xmlns="http://www.w3.org/2000/svg" xmlns:xlink="http://www.w3.org/1999/xlink" x="0px" y="0px"
	 width="27.4px" height="31.7px" viewBox="0 0 27.4 31.7" style="enable-background:new 0 0 27.4 31.7;" xml:space="preserve">
<g id="OPt-2">
	<g id="prog2_pro3_Mobile-Portrait_opt2-Copy-2" transform="translate(-10.000000, -15.000000)">
		<g id="nav">
			<g id="Group-6">
				<g id="ic_home_9_" transform="translate(14.000000, 17.000000)">
					<g id="Group_9_" transform="translate(9.600000, 12.000000) scale(-1, 1) translate(-9.600000, -12.000000) ">
						<path id="Shape_29_" d="M2.5,8.7l0.9,0.7l1.4,1.1c0.2-1,0.8-1.8,1.5-2.3L3.6,6l0.9-1.1c0.4-0.5,0.3-1.1-0.2-1.5L2.2,6.2
							C1.9,6.6,1.8,7.1,1.9,7.5C1.9,8,2.2,8.4,2.5,8.7L2.5,8.7z"/>
						<path id="Shape_28_" d="M11.3,18.4c-3.1-1.6-5.8-2.1-6.5-1c-0.6,0.9,0.4,2.6,2.3,4.4l-1.8,2.9H4.1c-0.6,0-1,0.5-1,1.1h1.6h2.1
							l0.7-1.1l1-1.7l0.4-0.7c-0.1-0.2-0.2-0.5-0.2-0.8c0-0.9,0.7-1.6,1.6-1.6c0,0,0.1,0,0.1,0L11.3,18.4L11.3,18.4z"/>
						<path id="Shape_27_" d="M20,8.3c-0.2-0.8-0.8-1.4-1.7-1.4c-0.2,0-0.5,0-0.7,0.1c-0.6,0.3-1,0.9-1,1.6v8.2c0,0.6-0.5,1.1-1,1.1
							c-0.4,0-0.8-0.3-0.9-0.6c0,0,0-0.1,0-0.1l-1-2.4l1.9-6.5c0,0,0,0,0,0c0-0.1,0-0.1,0.1-0.2c0.7-2.5-0.5-5.2-2.9-6.3L8.2,3.4
							C7.7,3.6,7.4,4.2,7.6,4.7l1.1-0.4c0.4-0.2,0.9,0.1,1.1,0.5S9.7,5.8,9.3,6L8.1,6.4C8.3,6.9,8.9,7.2,9.5,7l1.2-0.5
							c0.1,0.5-0.2,1-0.7,1.2L7.7,8.6C6.7,9,6,10,5.9,11.2c0,0,0,0.1,0,0.1c0,0,0,0.1,0,0.1c0,0,0,0,0,0H2.2V9.9
							c0-0.4-0.5-0.7-0.8-0.9L1.2,8.9v3.5c0,1,0.8,1.8,1.8,1.8h4.1c0.4,0,0.7,0,1.1,0.1c0,0,0,0,0,0c0,0,0,0,0.1,0c0,0,0,0,0,0
							c1.8,0.5,3.2,2.1,3.4,4c0,0,0,0.1,0,0.1c0,0.1,0,0.2,0,0.3c0,1.1-0.4,2.1-1,2.9c0,0.1-0.1,0.1-0.1,0.2
							c-0.1,0.2-0.2,0.4-0.2,0.7c0,0.6,0.5,1.2,1.1,1.2c0.2,0,0.4-0.1,0.6-0.2l2.3-1.4c0.3,0.2,0.5,0.5,0.5,0.9
							c0,0.3-0.1,0.5-0.3,0.7l-1,1.1h-1.2h0h-0.1c-0.6,0-1,0.5-1,1.1h2.1h0h1.3c0-1,0.8-1.8,1.8-1.8v-3.1c-0.8-0.2-1.4-0.9-1.4-1.8
							c0,0,0-0.1,0-0.1c0.1,0,0.2,0,0.3,0c0.4,0,0.8-0.1,1.1-0.3c0.6-0.4,1-1.1,1-1.9V8.6c0-0.4,0.3-0.7,0.7-0.7
							C18.7,8,19,8.2,19,8.6c-0.5,0.3-0.8,0.9-0.8,1.5c0,1,0.8,1.8,1.8,1.8V8.6C20,8.5,20,8.4,20,8.3L20,8.3z"/>
					</g>
				</g>
			</g>
		</g>
	</g>
</g>
</svg>
